<svg id="Layer_1" data-name="Layer 1" xmlns="http://www.w3.org/2000/svg" viewBox="0 0 375.78 375.78"><defs><style>.cls-1{fill:#2196f3;}</style></defs><title>cream mark</title><path class="cls-1" d="M218.74,25.27C115,25.27,30.85,109.39,30.85,213.16S115,401.06,218.74,401.06A189.67,189.67,0,0,0,246.4,399c-1-.41-2.06-.82-3.07-1.27q-17.52-7.9-28.86-19.77a90,90,0,0,1-17.16-24.55q-5.81-12.69-5.81-21,0-10.65,6.92-17.19a24.16,24.16,0,0,1,17.25-6.53,18.28,18.28,0,0,1,10,3A14.35,14.35,0,0,1,231.9,319q9.58,25.56,20.56,38t30.9,12.42a46.55,46.55,0,0,0,22-5.61,45.92,45.92,0,0,0,17.52-16.64q6.91-11,6.92-25.56,0-21.53-11.8-33.75-10.32-10.68-27.68-12A2.15,2.15,0,0,1,289,272.1l24.15-22.25a7.37,7.37,0,0,1,6.63-1.87l12,4c5.93,2.34,3.21,1.22,5.93,2.34,8.91,3.67,16.87,11.11,22.79,17.07a67.83,67.83,0,0,1,14.85,22,65,65,0,0,1,4.32,16.7,187,187,0,0,0,26.91-96.92C406.63,109.39,322.51,25.27,218.74,25.27ZM371.32,165.72,269.8,265.47s-12.41,14.63-30.59-1.78c0,0-10.19-12.85-.88-23.05S305.27,175,305.27,175l-98-.44s-16.85-2.22-17.29-22.17,20.49-18.17,20.49-18.17H354.6a20.68,20.68,0,0,1,16.72,10.64C377.53,155.53,371.32,165.72,371.32,165.72Z" transform="translate(-30.85 -25.27)"/></svg>